<svg width="183" height="64" viewBox="0 0 183 64" fill="none" xmlns="http://www.w3.org/2000/svg">
<g clip-path="url(#clip0_401_2)">
<path d="M73.2232 40.9091C75.7481 40.9091 77.787 41.6624 79.328 43.1688C80.8928 44.6752 81.6752 46.9114 81.6752 49.8771V61.4814H75.7599V50.7834C75.7599 49.171 75.4043 47.9823 74.6931 47.2056C73.9818 46.4053 72.9624 46.0051 71.6228 46.0051C70.1292 46.0051 68.9438 46.4641 68.0547 47.3939C67.1657 48.3001 66.7271 49.6535 66.7271 51.466V61.4814H60.8118V41.2151H66.4663V43.5925C67.2487 42.7333 68.2207 42.086 69.3824 41.6388C70.556 41.1563 71.8244 40.9091 73.2232 40.9091ZM87.0451 41.2151H92.9603V61.4814H87.0451V41.2151ZM90.0086 38.3906C88.9181 38.3906 88.0409 38.0728 87.3533 37.449C86.6658 36.8253 86.3339 36.0485 86.3339 35.1188C86.3339 34.189 86.6776 33.4123 87.3533 32.7885C88.0409 32.1648 88.9181 31.847 90.0086 31.847C91.0992 31.847 91.9764 32.153 92.664 32.7532C93.3515 33.3534 93.6834 34.1066 93.6834 35.0129C93.6834 35.9897 93.3397 36.8135 92.664 37.4608C91.9764 38.0728 91.0874 38.3906 90.0086 38.3906ZM108.311 61.7756C106.142 61.7756 104.174 61.3402 102.432 60.4575C100.713 59.5513 99.3616 58.3155 98.3777 56.7267C97.4175 55.1497 96.9315 53.349 96.9315 51.3365C96.9315 49.324 97.4175 47.5351 98.3777 45.9463C99.3616 44.3692 100.713 43.1335 102.432 42.2508C104.174 41.3446 106.142 40.8974 108.311 40.8974C110.457 40.8974 112.33 41.3446 113.93 42.2508C115.554 43.1335 116.728 44.3928 117.463 46.0522L112.875 48.5002C111.808 46.6407 110.279 45.7109 108.288 45.7109C106.747 45.7109 105.466 46.217 104.459 47.2173C103.451 48.2177 102.942 49.5947 102.942 51.3247C102.942 53.0548 103.451 54.42 104.459 55.4321C105.466 56.4325 106.747 56.9386 108.288 56.9386C110.315 56.9386 111.844 56.0088 112.875 54.1493L117.463 56.6326C116.728 58.2449 115.554 59.4924 113.93 60.3987C112.342 61.3284 110.469 61.7756 108.311 61.7756ZM130.313 61.7756C128.167 61.7756 126.223 61.3402 124.504 60.4575C122.809 59.5513 121.481 58.3155 120.521 56.7267C119.561 55.1497 119.075 53.349 119.075 51.3365C119.075 49.324 119.549 47.5351 120.521 45.9463C121.481 44.3692 122.809 43.1335 124.504 42.2508C126.223 41.3446 128.155 40.8974 130.313 40.8974C132.458 40.8974 134.379 41.3446 136.074 42.2508C137.769 43.1335 139.097 44.3575 140.057 45.9463C141.017 47.5233 141.503 49.324 141.503 51.3365C141.503 53.349 141.017 55.1379 140.057 56.7267C139.097 58.3038 137.769 59.5513 136.074 60.4575C134.391 61.3402 132.47 61.7756 130.313 61.7756ZM130.313 56.9621C131.83 56.9621 133.075 56.456 134.035 55.4557C135.019 54.4318 135.517 53.0548 135.517 51.3483C135.517 49.6418 135.019 48.2883 134.035 47.2762C133.075 46.2523 131.83 45.7344 130.313 45.7344C128.795 45.7344 127.539 46.2523 126.555 47.2762C125.571 48.2766 125.073 49.6418 125.073 51.3483C125.073 53.0548 125.571 54.42 126.555 55.4557C127.551 56.456 128.795 56.9621 130.313 56.9621ZM151.117 43.8867C151.828 42.9099 152.776 42.1684 153.962 41.6624C155.171 41.1563 156.57 40.9091 158.135 40.9091V46.3347C157.483 46.2876 157.032 46.2641 156.807 46.2641C155.112 46.2641 153.784 46.7466 152.824 47.6999C151.864 48.6296 151.378 50.0301 151.378 51.9132V61.4814H145.462V41.2151H151.117V43.8867ZM174.055 40.9091C176.58 40.9091 178.619 41.6624 180.16 43.1688C181.724 44.6752 182.507 46.9114 182.507 49.8771V61.4814H176.591V50.7834C176.591 49.171 176.236 47.9823 175.525 47.2056C174.813 46.4053 173.794 46.0051 172.454 46.0051C170.961 46.0051 169.775 46.4641 168.886 47.3939C167.997 48.3001 167.559 49.6535 167.559 51.466V61.4814H161.643V41.2151H167.298V43.5925C168.08 42.7333 169.052 42.086 170.214 41.6388C171.387 41.1563 172.668 40.9091 174.055 40.9091Z" fill="#6820C5"/>
<path fill-rule="evenodd" clip-rule="evenodd" d="M40.7428 13.7462L56.8644 0.0705682C58.5951 -0.353117 58.7848 1.24747 58.3106 1.91831L46.658 18.1478C51.6249 23.0084 54.6951 29.7285 54.6951 37.1548C54.6951 51.9838 42.4497 64 27.3475 64C12.2453 64 0 51.9838 0 37.1548C0 22.3258 12.2453 10.3096 27.3475 10.3096C32.2196 10.3096 36.7835 11.5571 40.7428 13.7462Z" fill="#6820C5"/>
<path d="M55.1218 55.1968C50.9255 60.74 36.7953 56.9033 28.6397 56.9033C17.2952 56.9033 8.09639 48.4413 8.09639 38.014C8.09639 27.5866 17.2952 19.1247 28.6397 19.1247C39.9959 19.1129 55.1218 44.7576 55.1218 55.1968Z" fill="white"/>
<path d="M33.8555 20.9606L40.2686 26.1272L45.1169 19.2777L40.4227 15.3586L33.8555 20.9606Z" fill="white"/>
<path d="M40.4227 15.3586L45.1169 19.2777L56.6629 2.94226C57.0422 2.41265 56.331 1.78889 55.8331 2.21258L40.4227 15.3586Z" fill="white"/>
<path d="M32.2315 34.7657C34.3178 33.1651 39.0476 32.6355 39.2491 38.5671L32.2315 34.7657Z" fill="#6820C5"/>
</g>
<defs>
<clipPath id="clip0_401_2">
<rect width="182.507" height="63.9997" fill="white"/>
</clipPath>
</defs>
</svg>
